<?xml version="1.0" encoding="utf-8"?>
<svg x="0pt" y="0pt" width="1300pt" height="1192.44pt" viewBox="0 0 1300 1192.44" xmlns="http://www.w3.org/2000/svg" xmlns:xlink="http://www.w3.org/1999/xlink">
  <g id="Layer 1">
    <g id="Group">
      <path id="Path" style="fill:#ffffff;fill-opacity:1;fill-rule:evenodd;opacity:1;stroke:none;" d="M671.234,86.6078 C962.795,86.6078,1199.15,322.964,1199.15,614.525 C1199.15,906.086,962.795,1142.44,671.234,1142.44 C379.674,1142.44,143.317,906.086,143.317,614.525 C143.317,322.964,379.674,86.6078,671.234,86.6078 z"/>
      <path id="Path" style="fill:#ffffff;fill-opacity:1;fill-rule:evenodd;opacity:1;stroke:none;" d="M234.005,357.114 C366.576,357.114,511.21,433.378,511.21,555.455 C511.21,677.533,394.271,762.549,261.7,762.549 C129.128,762.549,46.9587,680.895,46.9587,558.817 C46.9587,436.74,101.433,357.114,234.005,357.114 z"/>
      <path id="Path" style="fill:#ffffff;fill-opacity:1;fill-rule:evenodd;opacity:1;stroke:none;" d="M1004.76,224.77 C1144.49,197.711,1217.85,254.499,1241.94,378.874 C1266.02,503.25,1188.1,621.246,1048.37,648.305 C908.636,675.364,775.835,596.473,751.75,472.098 C727.665,347.723,865.027,251.829,1004.76,224.77 z"/>
      <path id="Path 10" style="fill:#000000;fill-opacity:1;fill-rule:nonzero;opacity:1;stroke:none;" d="M624.202,126.923 C554.744,136.845,510.599,152.5,448.085,182.988 C438.743,187.544,426.532,186.42,417.766,191.831 C411.177,195.899,406.962,202.473,400.953,207.21 C367.251,233.772,334.207,258.255,304.811,289.955 C288.661,307.372,272.303,328.092,260.138,348.469 C253.593,359.431,249.73,376.239,240.338,385.176 C230.923,394.134,189.397,392.543,175.643,395.962 C128.086,407.783,85.4317,452.036,77.2745,501.844 C67.7707,559.873,77.9609,639.967,120.608,683.959 C143.331,707.4,175.439,715.526,193.585,742.714 C205.963,761.259,209.584,787.373,217.955,807.993 C227.079,830.473,247.23,864.69,259.798,886.41 C295.482,948.077,358.815,997.176,414.873,1038.79 C437.993,1055.95,470.084,1062.63,496.317,1073.9 C594.554,1116.14,715.776,1118.03,817.592,1086.06 C833.23,1081.16,846.754,1072.91,861.905,1067.1 C878.606,1060.7,895.934,1056.95,911.619,1047.96 C977.252,1010.33,1032.1,955.673,1075.61,894.753 C1091,873.206,1108.7,850.711,1120.11,826.745 C1127.47,811.272,1128.16,793.856,1132.63,777.586 C1144.76,733.493,1157.29,692.89,1160.02,646.46 C1160.9,631.434,1164.59,571.498,1155.21,561.963 C1235.36,529.921,1229.98,378.488,1196.33,315.185 C1186.92,297.47,1162.85,278.281,1147.72,265.101 C1120.87,241.712,1075.06,244.365,1042.43,248.283 C1026.69,250.173,1014.49,258.033,998.076,251.194 C982.795,244.826,974.346,229.604,962.119,219.431 C949.818,209.198,934.861,199.667,920.74,192.164 C913.259,188.188,904.584,186.993,896.958,183.318 C802.848,137.973,729.404,119.407,624.202,126.923 z M822.849,260.953 C842.05,273.365,893.16,302.092,906.821,315.48 C915.498,323.983,931.893,352.04,934.606,363.821 C938.89,382.43,935.962,437.542,936.313,459.987 C936.415,466.476,929.74,477.952,931.554,483.475 C932.894,487.554,941.719,492.626,944.928,495.625 C956.37,506.323,968.593,516.584,979.386,527.934 C994.392,543.715,1024.78,581.752,1033.06,601.163 C1037.67,611.945,1040.07,624.247,1043.44,635.482 C1046.37,645.253,1052.24,657.173,1052.68,667.355 C1053.57,688.183,1048.33,710.982,1046.21,731.743 C1044.66,746.914,1045.42,764.939,1041.12,779.552 C1030.34,816.216,988.616,876.772,959.425,901.273 C939.321,918.147,916.563,931.698,893.753,944.447 C875.273,954.776,856.178,968.76,836.412,976.29 C811.558,985.757,784.296,990.184,758.443,996.068 C743.38,999.496,726.911,1005.56,711.506,1006.53 C639.111,1011.09,548.643,997.443,482.927,965.763 C458.402,953.94,439.619,929.998,421.021,910.887 C406.128,895.583,386.093,880.185,374.299,862.413 C340.106,810.889,334.737,764.152,344.024,704.056 C345.766,692.783,346.372,680.479,349.472,669.507 C354.19,652.808,372.246,619.748,381.727,604.51 C387.051,595.953,396.863,585.25,399.568,575.576 C400.419,572.532,393.315,566.24,391.467,563.982 C383.135,553.798,378.022,541.597,372.107,529.892 C367.08,519.946,358.863,508.625,356.133,497.836 C352.981,485.385,357.406,460.779,357.989,447.214 C358.359,438.588,356.117,423.737,359.711,415.918 C363.825,406.969,378.116,397.789,385.259,390.946 C405.262,371.783,425.266,352.62,445.27,333.456 C451.364,327.619,466.885,309.021,473.876,306.678 C481.226,304.214,493.109,306.659,500.874,306.771 C520.535,307.056,541.736,305.103,561.208,307.728 C573.386,309.37,596.263,325.162,608.03,331.199 C612.021,333.247,619.922,339.368,624.458,338.53 C651.008,333.624,669.665,292.529,694.381,277.92 C734.783,254.041,777.934,259.29,822.849,260.953 z M1104.67,313.734 C1111.13,317.797,1117.59,321.86,1124.05,325.923 C1127,327.775,1130.87,329.457,1133.38,331.853 C1135.03,333.421,1136.31,335.655,1137.69,337.468 C1140.58,341.29,1143.48,345.111,1146.37,348.933 C1149.09,352.518,1153.08,356.368,1155,360.431 C1157.74,366.261,1159.35,372.938,1161.46,379.029 C1163.18,383.976,1165.9,389.354,1166.78,394.508 C1167.72,399.955,1166.68,406.445,1166.62,411.98 C1166.55,417.702,1167.37,424.271,1166.35,429.894 C1165.21,436.171,1162.3,442.568,1160.34,448.645 C1159.09,452.546,1158.26,457.211,1156.37,460.841 C1154.4,464.628,1150.73,468.128,1148.1,471.494 C1145.81,474.413,1143.68,477.683,1141.12,480.363 C1134.74,487.048,1126.74,492.687,1118.75,497.174 C1116.03,498.699,1113.17,500.852,1110.25,501.905 C1106.64,503.202,1101.53,502.803,1097.71,503.165 C1093.48,503.565,1089.18,504.241,1084.93,504.36 C1080.88,504.473,1076.63,503.74,1072.58,503.422 C1069.67,503.194,1066.39,503.35,1063.55,502.68 C1061.36,502.164,1059.03,500.441,1057.03,499.411 C1052.37,497.013,1047.73,494.611,1043.17,492.028 C1039.23,489.8,1034.66,487.861,1031.06,485.128 C1027.48,482.405,1024.3,478.862,1021.01,475.793 C1018.78,473.712,1015.95,471.693,1014.08,469.282 C1012.58,467.347,1011.67,464.578,1010.57,462.388 C1008.2,457.638,1005.82,452.888,1003.45,448.137 C1001.6,444.443,999.754,440.749,997.907,437.054 C997.073,435.385,995.737,433.507,995.299,431.692 C994.008,426.345,994.436,419.98,994.048,414.486 C993.742,410.145,993.437,405.804,993.131,401.463 C992.982,399.344,992.492,396.957,992.713,394.845 C993.29,389.347,995.708,383.516,997.14,378.17 C998.514,373.04,999.889,367.91,1001.26,362.78 C1001.9,360.422,1002.23,357.508,1003.32,355.324 C1004.85,352.25,1007.73,349.389,1009.8,346.643 C1013.07,342.306,1016.09,337.362,1019.8,333.403 C1021.03,332.09,1023.05,331.17,1024.55,330.182 C1027.82,328.033,1031.06,325.848,1034.4,323.823 C1038.73,321.2,1043.07,317.945,1047.66,315.82 C1050.25,314.624,1053.41,314.135,1056.16,313.354 C1059.43,312.422,1062.81,311.106,1066.16,310.533 C1068.93,310.061,1071.97,310.269,1074.78,310.16 C1078.35,310.02,1082.04,309.59,1085.61,309.754 C1091.83,310.038,1098.57,312.443,1104.67,313.734 z M247.381,473.995 C252.794,477.492,259.011,480.635,263.971,484.743 C266.236,486.619,268.086,489.415,270.015,491.638 C272.528,494.537,275.593,497.375,277.721,500.564 C279.551,503.307,280.492,507.185,281.741,510.24 C284.498,516.98,287.255,523.721,290.011,530.461 C292.587,536.761,295.915,543.154,297.847,549.676 C298.593,552.196,298.435,555.309,298.68,557.927 C299.041,561.801,299.935,566.005,299.757,569.889 C299.626,572.745,298.858,575.697,298.408,578.52 C297.725,582.799,297.496,587.516,296.272,591.67 C295.214,595.261,293.526,598.772,292.167,602.261 C290.906,605.499,289.93,609.18,288.248,612.218 C284.524,618.946,279.096,625.502,274.348,631.544 C271.612,635.026,269.067,639.024,265.962,642.177 C263.695,644.478,260.508,646.258,257.908,648.177 C256.159,649.468,254.376,651.177,252.437,652.157 C249.968,653.404,247.016,654.071,244.402,654.979 C241.932,655.836,239.325,657.099,236.757,657.587 C233.246,658.254,229.436,658.184,225.872,658.463 C222.767,658.706,219.398,659.364,216.29,659.172 C211.22,658.858,206.004,657.471,200.992,656.63 C196.139,655.816,190.335,655.685,185.709,654.028 C183.959,653.402,182.205,651.637,180.69,650.562 C177.067,647.991,173.444,645.42,169.822,642.85 C164.496,639.07,158.564,635.594,153.626,631.323 C150.896,628.962,148.453,626.157,145.903,623.6 C143.949,621.639,141.593,619.746,139.916,617.545 C136.83,613.496,133.882,607.714,131.843,603.046 C130.758,600.562,131.061,596.654,130.78,593.955 C130.071,587.147,129.363,580.338,128.654,573.53 C128.036,567.584,126.92,561.468,126.802,555.494 C126.675,549.053,127.318,542.504,127.581,536.066 C127.718,532.719,127.855,529.372,127.991,526.025 C128.052,524.54,127.827,522.666,128.258,521.241 C129.043,518.65,130.864,516.058,132.098,513.645 C133.993,509.94,135.591,505.582,137.998,502.191 C140.986,497.981,145.706,494.357,149.346,490.687 C152.379,487.63,155.394,483.583,158.911,481.108 C162.399,478.653,167.343,477.27,171.24,475.522 C176.12,473.333,181.102,470.455,186.196,468.839 C189.623,467.752,194.128,468.083,197.714,467.773 C203.884,467.24,210.691,465.778,216.865,466.153 C220.1,466.349,223.67,467.858,226.81,468.671 C233.667,470.446,240.524,472.22,247.381,473.995 z"/>
      <path id="Path 11" style="fill:#000000;fill-opacity:1;fill-rule:nonzero;opacity:1;stroke:none;" d="M750.556,385.388 C734.881,392.745,713.129,413.217,708.011,425.373 C705.772,430.171,704.173,442.647,704.173,453.203 C704.173,470.156,705.452,473.355,716.968,488.07 C744.478,522.937,775.507,531.894,809.414,514.62 C836.924,500.865,851.319,469.837,846.201,436.889 C843.322,419.935,827.008,395.944,812.933,388.267 C796.619,379.31,766.55,377.71,750.556,385.388 z"/>
      <path id="Path 12" style="fill:#000000;fill-opacity:1;fill-rule:nonzero;opacity:1;stroke:none;" d="M517.044,420.575 C497.211,427.612,489.214,434.969,479.937,454.162 C464.263,487.75,464.263,498.306,481.217,532.534 C484.735,540.211,490.493,547.888,493.692,549.487 C512.565,559.724,551.271,565.481,555.109,559.084 C556.069,557.484,561.827,555.245,568.225,554.286 C580.06,552.046,596.694,539.891,602.452,529.015 C604.371,525.176,607.89,514.94,610.129,506.303 C617.487,478.793,604.371,449.044,577.501,430.491 C565.666,422.494,558.948,420.255,542.954,419.295 C532.398,418.655,520.562,419.295,517.044,420.575 z"/>
      <path id="Path 13" style="fill:#000000;fill-opacity:1;fill-rule:nonzero;opacity:1;stroke:none;" d="M880.111,717.106 C865.077,723.503,844.284,732.46,833.728,737.578 C805.898,751.013,766.233,763.809,744.161,766.687 C733.605,768.287,714.092,771.166,700.977,773.725 C673.787,778.523,580.701,779.163,537.197,775.004 C502.97,771.486,491.774,775.004,485.056,791.638 C478.339,807.313,478.978,833.223,486.336,845.378 C491.774,854.335,495.292,855.935,513.526,859.133 C525.042,861.053,568.865,862.972,612.05,862.972 C691.38,862.972,724.328,859.773,760.155,848.577 C787.985,839.621,795.022,837.701,812.936,833.863 C827.97,830.664,847.483,824.266,872.114,814.67 C875.633,813.39,893.866,804.753,913.059,795.797 C960.082,773.405,966.159,763.489,951.445,732.14 C945.367,719.345,932.892,710.388,918.497,707.829 C910.18,706.55,900.583,708.789,880.111,717.106 z"/>
    </g>
  </g>
  <g id="Layer 4"/>
</svg>
