<?xml version="1.0" encoding="utf-8"?>
<svg x="0pt" y="0pt" width="351pt" height="322pt" viewBox="0 0 351 322" xmlns="http://www.w3.org/2000/svg" xmlns:xlink="http://www.w3.org/1999/xlink">
  <g id="Layer 1">
    <path id="Path 20" style="fill:#ffffff;fill-opacity:1;fill-rule:nonzero;opacity:1;stroke:none;" d="M55.3166,0.0827347 C55.3166,0.0827347,274.874,0.0827347,274.874,0.0827347 C274.874,0.0827347,274.874,219.64,274.874,219.64 C274.874,219.64,55.3166,219.64,55.3166,219.64 C55.3166,219.64,55.3166,0.0827347,55.3166,0.0827347 z"/>
    <path id="Path 21" style="fill:#ffffff;fill-opacity:1;fill-rule:nonzero;opacity:1;stroke:none;" d="M58.6407,110.406 C58.6407,134.862,67.0363,158.566,82.4227,177.562 C86.4166,174.313,90.4105,171.064,94.4044,167.815 C67.2899,134.424,67.2586,86.6085,94.3293,53.182 C90.3323,49.9268,86.3352,46.6715,82.3382,43.4163 C67.0191,62.3866,58.6583,86.0308,58.6472,110.414 C58.6472,110.414,58.6407,110.406,58.6407,110.406 z"/>
    <path id="Path 22" style="fill:#ffffff;fill-opacity:1;fill-rule:nonzero;opacity:1;stroke:none;" d="M29.156,110.406 C29.18,141.53,39.8568,171.708,59.411,195.922 C63.3955,192.685,67.38,189.449,71.3645,186.212 C35.633,142.009,35.633,78.8515,71.3645,34.6479 C67.355,31.4146,63.3455,28.1813,59.3359,24.948 C39.8189,49.1557,29.1696,79.3111,29.1564,110.407 C29.1564,110.407,29.156,110.406,29.156,110.406 z"/>
    <path id="Path 23" style="fill:#ffffff;fill-opacity:1;fill-rule:nonzero;opacity:1;stroke:none;" d="M1.0354e-10,110.406 C0.0369276,148.223,13.0182,184.896,36.7857,214.32 C40.7984,211.077,44.8111,207.835,48.8237,204.592 C4.40014,149.724,4.34926,71.2762,48.7016,16.3502 C44.6733,13.1169,40.645,9.8836,36.6167,6.6503 C12.9342,36.045,0.0127216,72.6528,-0.00442197,110.401 C-0.00442197,110.401,1.0354e-10,110.406,1.0354e-10,110.406 z"/>
    <path id="Path 24" style="fill:#ffffff;fill-opacity:1;fill-rule:nonzero;opacity:1;stroke:none;" d="M235.737,53.127 C262.783,86.5584,262.764,134.351,235.69,167.76 C239.671,171.025,243.652,174.29,247.634,177.554 C279.349,138.493,279.388,82.5611,247.728,43.4553 C247.728,43.4553,235.737,53.127,235.737,53.127 z"/>
    <path id="Path 25" style="fill:#ffffff;fill-opacity:1;fill-rule:nonzero;opacity:1;stroke:none;" d="M258.733,34.6474 C294.448,78.8643,294.424,142.021,258.676,186.212 C262.67,189.448,266.664,192.685,270.658,195.921 C310.975,146.068,310.998,74.8276,270.714,24.9475 C270.714,24.9475,258.733,34.6474,258.733,34.6474 z"/>
    <path id="Path 26" style="fill:#ffffff;fill-opacity:1;fill-rule:nonzero;opacity:1;stroke:none;" d="M281.41,16.3556 C325.746,71.2898,325.687,149.73,281.269,204.597 C285.263,207.84,289.257,211.083,293.251,214.326 C342.254,153.795,342.317,67.2575,293.401,6.65577 C293.401,6.65577,281.41,16.3556,281.41,16.3556 z"/>
    <path id="Path 27" style="fill:#ffffff;fill-opacity:1;fill-rule:nonzero;opacity:1;stroke:none;" d="M92.2194,110.406 C92.2194,139.844,109.957,166.392,137.162,177.663 C164.367,188.934,195.683,182.708,216.508,161.888 C237.333,141.068,243.567,109.754,232.303,82.5465 C221.039,55.3385,194.496,37.5941,165.048,37.5865 C145.742,37.6089,127.233,45.2881,113.582,58.9396 C99.9304,72.5911,92.2512,91.1,92.2288,110.406 C92.2288,110.406,92.2194,110.406,92.2194,110.406 z M107.628,110.406 C107.628,87.2053,121.609,66.2799,143.051,57.3951 C164.493,48.5103,189.176,53.4153,205.593,69.8234 C222.009,86.2315,226.926,110.912,218.052,132.359 C209.177,153.806,188.259,167.796,165.048,167.807 C133.362,167.766,107.684,142.092,107.638,110.406 C107.638,110.406,107.628,110.406,107.628,110.406 z"/>
    <g id="Group">
      <path id="Path 28" style="fill:#231f20;fill-opacity:1;fill-rule:nonzero;opacity:1;stroke:none;" d="M38.8841,302.188 C36.3269,302.188,33.7697,302.188,31.2124,302.188 C29.8008,297.784,28.3892,293.38,26.9775,288.976 C22.0853,288.976,17.1931,288.976,12.3009,288.976 C10.9644,293.38,9.6279,297.784,8.29139,302.188 C5.78738,302.188,3.28338,302.188,0.77937,302.188 C5.62149,287.164,10.4636,272.14,15.3057,257.116 C18.298,257.116,21.2903,257.116,24.2826,257.116 C29.1466,272.14,34.0107,287.164,38.8747,302.188 M25.7287,283.408 C24.4548,279.467,23.1808,275.527,21.9069,271.586 C21.5125,270.393,20.7238,267.558,19.6345,263.06 C19.5876,263.06,19.5406,263.06,19.4937,263.06 C19.0524,264.994,18.3293,267.83,17.3528,271.586 C16.1008,275.527,14.8488,279.467,13.5968,283.408 C13.5968,283.408,25.7287,283.408,25.7287,283.408 z"/>
      <path id="Path 29" style="fill:#231f20;fill-opacity:1;fill-rule:nonzero;opacity:1;stroke:none;" d="M71.5989,302.188 C69.4737,302.188,67.3484,302.188,65.2231,302.188 C65.0791,300.551,64.9352,298.914,64.7912,297.277 C64.7599,297.277,64.7286,297.277,64.6973,297.277 C62.5859,300.946,58.5962,303.122,54.3683,302.911 C51.5069,303.037,48.7216,301.969,46.6778,299.963 C44.3773,297.502,43.2505,293.775,43.2505,288.845 C43.2505,282.438,43.2505,276.03,43.2505,269.623 C45.6668,269.623,48.0832,269.623,50.4996,269.623 C50.4996,275.614,50.4996,281.605,50.4996,287.596 C50.4996,293.868,52.6499,296.986,56.8942,296.986 C60.1056,296.986,62.3216,295.39,63.5611,292.291 C63.9006,291.414,64.0633,290.479,64.04,289.54 C64.04,282.901,64.04,276.262,64.04,269.623 C66.4595,269.623,68.879,269.623,71.2985,269.623 C71.2985,277.364,71.2985,285.104,71.2985,292.845 C71.2985,295.925,71.3642,299.042,71.599,302.188 C71.599,302.188,71.5989,302.188,71.5989,302.188 z"/>
      <path id="Path 30" style="fill:#231f20;fill-opacity:1;fill-rule:nonzero;opacity:1;stroke:none;" d="M109.544,302.188 C107.397,302.188,105.25,302.188,103.102,302.188 C102.993,300.46,102.883,298.732,102.774,297.005 C102.705,297.005,102.636,297.005,102.567,297.005 C100.52,300.949,97.0365,302.902,92.1255,302.902 C88.3279,302.952,84.7174,301.256,82.3317,298.301 C79.7401,295.221,78.4443,291.277,78.4443,286.338 C78.4443,281.06,79.8622,276.816,82.6885,273.567 C85.2095,270.622,88.9067,268.948,92.7828,268.994 C97.2055,268.994,100.295,270.487,102.023,273.426 C102.023,267.204,102.023,260.981,102.023,254.759 C104.448,254.759,106.874,254.759,109.3,254.759 C109.3,267.661,109.3,280.563,109.3,293.465 C109.3,296.638,109.375,299.549,109.544,302.188 M102.032,288.516 C102.032,286.707,102.032,284.898,102.032,283.089 C102.046,282.323,101.977,281.558,101.825,280.807 C101.452,279.102,100.532,277.565,99.2056,276.431 C97.8785,275.244,96.1497,274.606,94.3697,274.647 C91.8501,274.566,89.4636,275.777,88.0408,277.858 C86.4071,280.282,85.5911,283.164,85.7121,286.084 C85.5666,288.89,86.3415,291.666,87.9188,293.991 C89.3579,296.053,91.7335,297.258,94.2477,297.202 C96.4682,297.272,98.5878,296.273,99.9474,294.516 C101.345,292.835,102.083,290.702,102.023,288.516 C102.023,288.516,102.032,288.516,102.032,288.516 z"/>
      <path id="Path 31" style="fill:#231f20;fill-opacity:1;fill-rule:nonzero;opacity:1;stroke:none;" d="M126.362,259.895 C126.417,261.077,125.958,262.224,125.103,263.041 C124.204,263.871,123.011,264.307,121.789,264.252 C120.645,264.276,119.543,263.824,118.746,263.003 C117.921,262.182,117.47,261.059,117.497,259.895 C117.476,258.746,117.935,257.64,118.765,256.844 C120.574,255.241,123.294,255.241,125.103,256.844 C125.937,257.636,126.395,258.746,126.362,259.895 M125.573,302.15 C123.153,302.15,120.734,302.15,118.314,302.15 C118.314,291.308,118.314,280.466,118.314,269.623 C120.737,269.623,123.16,269.623,125.582,269.623 C125.582,269.623,125.573,302.15,125.573,302.15 z"/>
      <path id="Path 32" style="fill:#231f20;fill-opacity:1;fill-rule:nonzero;opacity:1;stroke:none;" d="M164.457,285.699 C164.457,290.676,163.058,294.817,160.175,298.009 C157.292,301.202,153.236,302.902,148.259,302.902 C143.47,302.902,139.667,301.315,136.822,298.207 C133.937,294.904,132.419,290.626,132.578,286.244 C132.578,281.211,134.033,277.088,136.972,273.858 C139.911,270.628,143.836,269.032,148.794,269.032 C153.153,268.858,157.368,270.605,160.325,273.811 C163.142,276.882,164.457,280.844,164.457,285.737 M156.945,285.915 C157.013,283.217,156.344,280.552,155.011,278.206 C153.688,275.815,151.17,274.331,148.438,274.331 C145.705,274.331,143.188,275.815,141.864,278.206 C140.502,280.592,139.829,283.31,139.921,286.056 C139.836,288.757,140.509,291.427,141.865,293.765 C143.153,296.194,145.689,297.701,148.438,297.671 C151.208,297.671,153.367,296.319,154.926,293.699 C156.331,291.337,157.041,288.626,156.973,285.878 C156.973,285.878,156.945,285.915,156.945,285.915 z"/>
      <path id="Path 33" style="fill:#231f20;fill-opacity:1;fill-rule:nonzero;opacity:1;stroke:none;" d="M221.191,283.267 C221.191,289.925,219.558,294.939,216.356,298.291 C213.407,301.362,209.247,302.93,203.876,302.93 C192.871,302.93,187.372,296.426,187.378,283.417 C187.378,274.653,187.378,265.889,187.378,257.125 C189.804,257.125,192.229,257.125,194.655,257.125 C194.655,266.03,194.655,274.935,194.655,283.84 C194.655,288.253,195.538,291.634,197.313,293.915 C198.929,296.044,201.488,297.241,204.158,297.117 C210.665,297.117,213.924,292.676,213.924,283.84 C213.924,274.919,213.924,265.999,213.924,257.078 C216.346,257.078,218.769,257.078,221.191,257.078 C221.191,257.078,221.191,283.267,221.191,283.267 z"/>
      <path id="Path 34" style="fill:#231f20;fill-opacity:1;fill-rule:nonzero;opacity:1;stroke:none;" d="M258.498,302.188 C256.072,302.188,253.647,302.188,251.221,302.188 C251.221,295.975,251.221,289.762,251.221,283.549 C251.221,277.783,249.052,274.91,244.648,274.91 C242.634,274.863,240.71,275.742,239.427,277.295 C238.089,278.846,237.367,280.834,237.399,282.882 C237.399,289.317,237.399,295.753,237.399,302.188 C234.982,302.188,232.566,302.188,230.149,302.188 C230.149,294.447,230.149,286.707,230.149,278.966 C230.149,276.149,230.065,273.013,229.896,269.642 C232.015,269.642,234.134,269.642,236.253,269.642 C236.372,271.329,236.491,273.016,236.61,274.703 C236.679,274.703,236.748,274.703,236.816,274.703 C237.709,273.106,239.004,271.769,240.572,270.825 C242.553,269.623,244.829,268.996,247.145,269.013 C249.944,268.947,252.651,270.01,254.657,271.961 C257.183,274.375,258.413,277.98,258.413,282.769 C258.413,282.769,258.498,302.188,258.498,302.188 z"/>
      <path id="Path 35" style="fill:#231f20;fill-opacity:1;fill-rule:nonzero;opacity:1;stroke:none;" d="M274.893,259.895 C274.939,261.066,274.477,262.199,273.625,263.003 C272.728,263.83,271.539,264.266,270.32,264.215 C269.164,264.23,268.051,263.775,267.238,262.953 C266.425,262.131,265.982,261.014,266.01,259.858 C265.983,258.703,266.451,257.593,267.296,256.806 C269.102,255.205,271.819,255.205,273.625,256.806 C274.466,257.594,274.928,258.706,274.893,259.858 M274.104,302.113 C271.678,302.113,269.253,302.113,266.827,302.113 C266.827,291.283,266.827,280.453,266.827,269.623 C269.253,269.623,271.678,269.623,274.104,269.623 C274.104,269.623,274.104,302.113,274.104,302.113 z"/>
      <path id="Path 36" style="fill:#231f20;fill-opacity:1;fill-rule:nonzero;opacity:1;stroke:none;" d="M299.608,275.098 C296.941,275.098,294.274,275.098,291.607,275.098 C291.607,280.356,291.607,285.615,291.607,290.873 C291.607,294.873,293.016,296.883,295.852,296.883 C296.931,296.908,298.011,296.82,299.072,296.62 C299.138,298.435,299.204,300.251,299.27,302.066 C297.442,302.609,295.541,302.86,293.635,302.808 C291.134,302.956,288.691,302.018,286.931,300.235 C285.297,298.498,284.508,295.596,284.508,291.512 C284.508,286.04,284.508,280.569,284.508,275.098 C282.921,275.098,281.335,275.098,279.748,275.098 C279.748,273.273,279.748,271.448,279.748,269.623 C281.338,269.623,282.928,269.623,284.518,269.623 C284.518,267.648,284.518,265.673,284.518,263.698 C286.881,262.991,289.244,262.284,291.607,261.576 C291.607,264.259,291.607,266.941,291.607,269.623 C294.274,269.623,296.941,269.623,299.607,269.623 C299.607,269.623,299.608,275.098,299.608,275.098 z"/>
      <path id="Path 37" style="fill:#231f20;fill-opacity:1;fill-rule:nonzero;opacity:1;stroke:none;" d="M325.834,292.807 C325.935,295.631,324.696,298.336,322.491,300.103 C320.256,301.906,317.17,302.808,313.232,302.808 C309.953,302.903,306.701,302.173,303.777,300.686 C304.296,298.895,304.816,297.105,305.335,295.314 C307.725,296.823,310.491,297.627,313.317,297.634 C316.979,297.634,318.838,296.225,318.838,293.512 C318.861,292.399,318.431,291.324,317.646,290.535 C316.39,289.486,314.933,288.706,313.364,288.244 C307.57,286.075,304.688,282.957,304.688,278.854 C304.631,276.147,305.81,273.563,307.89,271.83 C310.282,269.876,313.311,268.872,316.397,269.013 C319.264,268.928,322.103,269.605,324.623,270.975 C324.087,272.7,323.552,274.425,323.017,276.149 C321.042,274.927,318.767,274.276,316.444,274.271 C315.169,274.197,313.908,274.577,312.885,275.342 C312.071,276.017,311.608,277.026,311.627,278.084 C311.599,279.162,312.1,280.187,312.97,280.826 C314.301,281.82,315.794,282.576,317.383,283.06 C323.017,285.126,325.834,288.413,325.834,292.807 C325.834,292.807,325.834,292.807,325.834,292.807 z"/>
      <path id="Group" style="fill:#ffffff;fill-opacity:1;fill-rule:nonzero;opacity:1;stroke:none;" d="M38.8841,302.188 C36.3269,302.188,33.7697,302.188,31.2124,302.188 C29.8008,297.784,28.3892,293.38,26.9775,288.976 C22.0853,288.976,17.1931,288.976,12.3009,288.976 C10.9644,293.38,9.6279,297.784,8.29139,302.188 C5.78738,302.188,3.28338,302.188,0.77937,302.188 C5.62149,287.164,10.4636,272.14,15.3057,257.116 C18.298,257.116,21.2903,257.116,24.2826,257.116 C29.1466,272.14,34.0107,287.164,38.8747,302.188 M25.7287,283.408 C24.4548,279.467,23.1808,275.527,21.9069,271.586 C21.5125,270.393,20.7238,267.558,19.6345,263.06 C19.5876,263.06,19.5406,263.06,19.4937,263.06 C19.0524,264.994,18.3293,267.83,17.3528,271.586 C16.1008,275.527,14.8488,279.467,13.5968,283.408 C13.5968,283.408,25.7287,283.408,25.7287,283.408 z M71.5989,302.188 C69.4737,302.188,67.3484,302.188,65.2231,302.188 C65.0791,300.551,64.9352,298.914,64.7912,297.277 C64.7599,297.277,64.7286,297.277,64.6973,297.277 C62.5859,300.946,58.5962,303.122,54.3683,302.911 C51.5069,303.037,48.7216,301.969,46.6778,299.963 C44.3773,297.502,43.2505,293.775,43.2505,288.845 C43.2505,282.438,43.2505,276.03,43.2505,269.623 C45.6668,269.623,48.0832,269.623,50.4996,269.623 C50.4996,275.614,50.4996,281.605,50.4996,287.596 C50.4996,293.868,52.6499,296.986,56.8942,296.986 C60.1056,296.986,62.3216,295.39,63.5611,292.291 C63.9006,291.414,64.0633,290.479,64.04,289.54 C64.04,282.901,64.04,276.262,64.04,269.623 C66.4595,269.623,68.879,269.623,71.2985,269.623 C71.2985,277.364,71.2985,285.104,71.2985,292.845 C71.2985,295.925,71.3642,299.042,71.599,302.188 C71.599,302.188,71.5989,302.188,71.5989,302.188 z M109.544,302.188 C107.397,302.188,105.25,302.188,103.102,302.188 C102.993,300.46,102.883,298.732,102.774,297.005 C102.705,297.005,102.636,297.005,102.567,297.005 C100.52,300.949,97.0365,302.902,92.1255,302.902 C88.3279,302.952,84.7174,301.256,82.3317,298.301 C79.7401,295.221,78.4443,291.277,78.4443,286.338 C78.4443,281.06,79.8622,276.816,82.6885,273.567 C85.2095,270.622,88.9067,268.948,92.7828,268.994 C97.2055,268.994,100.295,270.487,102.023,273.426 C102.023,267.204,102.023,260.981,102.023,254.759 C104.448,254.759,106.874,254.759,109.3,254.759 C109.3,267.661,109.3,280.563,109.3,293.465 C109.3,296.638,109.375,299.549,109.544,302.188 M102.032,288.516 C102.032,286.707,102.032,284.898,102.032,283.089 C102.046,282.323,101.977,281.558,101.825,280.807 C101.452,279.102,100.532,277.565,99.2056,276.431 C97.8785,275.244,96.1497,274.606,94.3697,274.647 C91.8501,274.566,89.4636,275.777,88.0408,277.858 C86.4071,280.282,85.5911,283.164,85.7121,286.084 C85.5666,288.89,86.3415,291.666,87.9188,293.991 C89.3579,296.053,91.7335,297.258,94.2477,297.202 C96.4682,297.272,98.5878,296.273,99.9474,294.516 C101.345,292.835,102.083,290.702,102.023,288.516 C102.023,288.516,102.032,288.516,102.032,288.516 z M126.362,259.895 C126.417,261.077,125.958,262.224,125.103,263.041 C124.204,263.871,123.011,264.307,121.789,264.252 C120.645,264.276,119.543,263.824,118.746,263.003 C117.921,262.182,117.47,261.059,117.497,259.895 C117.476,258.746,117.935,257.64,118.765,256.844 C120.574,255.241,123.294,255.241,125.103,256.844 C125.937,257.636,126.395,258.746,126.362,259.895 M125.573,302.15 C123.153,302.15,120.734,302.15,118.314,302.15 C118.314,291.308,118.314,280.466,118.314,269.623 C120.737,269.623,123.16,269.623,125.582,269.623 C125.582,269.623,125.573,302.15,125.573,302.15 z M164.457,285.699 C164.457,290.676,163.058,294.817,160.175,298.009 C157.292,301.202,153.236,302.902,148.259,302.902 C143.47,302.902,139.667,301.315,136.822,298.207 C133.937,294.904,132.419,290.626,132.578,286.244 C132.578,281.211,134.033,277.088,136.972,273.858 C139.911,270.628,143.836,269.032,148.794,269.032 C153.153,268.858,157.368,270.605,160.325,273.811 C163.142,276.882,164.457,280.844,164.457,285.737 M156.945,285.915 C157.013,283.217,156.344,280.552,155.011,278.206 C153.688,275.815,151.17,274.331,148.438,274.331 C145.705,274.331,143.188,275.815,141.864,278.206 C140.502,280.592,139.829,283.31,139.921,286.056 C139.836,288.757,140.509,291.427,141.865,293.765 C143.153,296.194,145.689,297.701,148.438,297.671 C151.208,297.671,153.367,296.319,154.926,293.699 C156.331,291.337,157.041,288.626,156.973,285.878 C156.973,285.878,156.945,285.915,156.945,285.915 z M221.191,283.267 C221.191,289.925,219.558,294.939,216.356,298.291 C213.407,301.362,209.247,302.93,203.876,302.93 C192.871,302.93,187.372,296.426,187.378,283.417 C187.378,274.653,187.378,265.889,187.378,257.125 C189.804,257.125,192.229,257.125,194.655,257.125 C194.655,266.03,194.655,274.935,194.655,283.84 C194.655,288.253,195.538,291.634,197.313,293.915 C198.929,296.044,201.488,297.241,204.158,297.117 C210.665,297.117,213.924,292.676,213.924,283.84 C213.924,274.919,213.924,265.999,213.924,257.078 C216.346,257.078,218.769,257.078,221.191,257.078 C221.191,257.078,221.191,283.267,221.191,283.267 z M258.498,302.188 C256.072,302.188,253.646,302.188,251.221,302.188 C251.221,295.975,251.221,289.762,251.221,283.549 C251.221,277.783,249.052,274.91,244.648,274.91 C242.634,274.863,240.71,275.742,239.427,277.295 C238.089,278.846,237.367,280.834,237.399,282.882 C237.399,289.317,237.399,295.753,237.399,302.188 C234.982,302.188,232.566,302.188,230.149,302.188 C230.149,294.447,230.149,286.707,230.149,278.966 C230.149,276.149,230.065,273.013,229.896,269.642 C232.015,269.642,234.134,269.642,236.253,269.642 C236.372,271.329,236.491,273.016,236.61,274.703 C236.679,274.703,236.748,274.703,236.816,274.703 C237.709,273.106,239.004,271.769,240.572,270.825 C242.553,269.623,244.829,268.996,247.145,269.013 C249.944,268.947,252.651,270.01,254.657,271.961 C257.183,274.375,258.413,277.98,258.413,282.769 C258.413,282.769,258.498,302.188,258.498,302.188 z M274.893,259.895 C274.939,261.066,274.477,262.199,273.625,263.003 C272.728,263.83,271.539,264.266,270.32,264.215 C269.164,264.23,268.051,263.775,267.238,262.953 C266.425,262.131,265.982,261.014,266.01,259.858 C265.983,258.703,266.451,257.593,267.296,256.806 C269.102,255.205,271.819,255.205,273.625,256.806 C274.466,257.594,274.928,258.706,274.893,259.858 M274.104,302.113 C271.678,302.113,269.253,302.113,266.827,302.113 C266.827,291.283,266.827,280.453,266.827,269.623 C269.253,269.623,271.678,269.623,274.104,269.623 C274.104,269.623,274.104,302.113,274.104,302.113 z M299.608,275.098 C296.941,275.098,294.274,275.098,291.607,275.098 C291.607,280.356,291.607,285.615,291.607,290.873 C291.607,294.873,293.016,296.883,295.852,296.883 C296.931,296.908,298.011,296.82,299.072,296.62 C299.138,298.435,299.204,300.251,299.27,302.066 C297.442,302.609,295.541,302.86,293.635,302.808 C291.134,302.956,288.691,302.018,286.931,300.235 C285.297,298.498,284.508,295.596,284.508,291.512 C284.508,286.04,284.508,280.569,284.508,275.098 C282.921,275.098,281.335,275.098,279.748,275.098 C279.748,273.273,279.748,271.448,279.748,269.623 C281.338,269.623,282.928,269.623,284.518,269.623 C284.518,267.648,284.518,265.673,284.518,263.698 C286.881,262.991,289.244,262.284,291.607,261.576 C291.607,264.259,291.607,266.941,291.607,269.623 C294.274,269.623,296.941,269.623,299.607,269.623 C299.607,269.623,299.608,275.098,299.608,275.098 z M325.834,292.807 C325.935,295.631,324.696,298.336,322.491,300.103 C320.256,301.906,317.17,302.808,313.232,302.808 C309.953,302.903,306.701,302.173,303.777,300.686 C304.296,298.895,304.816,297.105,305.335,295.314 C307.725,296.823,310.491,297.627,313.317,297.634 C316.979,297.634,318.838,296.225,318.838,293.512 C318.861,292.399,318.431,291.324,317.646,290.535 C316.39,289.486,314.933,288.706,313.364,288.244 C307.57,286.075,304.688,282.957,304.688,278.854 C304.631,276.147,305.81,273.563,307.89,271.83 C310.282,269.876,313.311,268.872,316.397,269.013 C319.264,268.928,322.103,269.605,324.623,270.975 C324.087,272.7,323.552,274.425,323.017,276.149 C321.042,274.927,318.767,274.276,316.444,274.271 C315.169,274.197,313.908,274.577,312.885,275.342 C312.071,276.017,311.608,277.026,311.627,278.084 C311.599,279.162,312.1,280.187,312.97,280.826 C314.301,281.82,315.794,282.576,317.383,283.06 C323.017,285.126,325.834,288.413,325.834,292.807 C325.834,292.807,325.834,292.807,325.834,292.807 z"/>
    </g>
  </g>
</svg>
