<?xml version="1.0" encoding="utf-8"?>
<svg x="148.25pt" y="33.982pt" width="397.082pt" height="95.6736pt" viewBox="148.25 33.982 397.082 95.6736" xmlns="http://www.w3.org/2000/svg" xmlns:xlink="http://www.w3.org/1999/xlink">
  <g id="Layer 1">
    <g id="Text">
      <g id="Group">
        <g id="Text">
          <path style="fill:#000000;fill-opacity:1;fill-rule:nonzero;opacity:1;stroke:none;" d="M168.168,123.036 C164.997,123.036,162.289,122.406,160.045,121.144 C157.801,119.883,156.277,117.973,155.473,115.414 C154.67,112.855,154.753,109.63,155.723,105.738 C157.161,99.9717,160.258,95.7192,165.013,92.9803 C169.768,90.2413,176.326,88.7277,184.687,88.4394 C184.687,88.4394,193.741,88.1151,193.741,88.1151 C193.741,88.1151,195.359,81.6281,195.359,81.6281 C196.006,79.0334,196.36,76.7449,196.422,74.7628 C196.483,72.7807,195.937,71.2131,194.783,70.0598 C193.629,68.9066,191.575,68.3299,188.619,68.3299 C185.881,68.3299,183.665,68.8345,181.971,69.8436 C180.278,70.8526,178.977,72.2401,178.069,74.006 C177.16,75.7719,176.418,77.8081,175.843,80.1145 C172.816,80.1145,170.657,79.592,169.368,78.5469 C168.079,77.5017,167.74,75.7539,168.351,73.3033 C168.98,70.7806,170.366,68.7624,172.51,67.2488 C174.653,65.7352,177.287,64.636,180.413,63.9513 C183.539,63.2665,186.868,62.9242,190.4,62.9242 C197.031,62.9242,201.636,64.3297,204.214,67.1407 C206.793,69.9517,207.229,74.7808,205.521,81.6281 C205.521,81.6281,198.54,109.63,198.54,109.63 C198.037,111.648,197.862,113.216,198.016,114.333 C198.17,115.45,198.693,116.243,199.585,116.712 C200.477,117.18,201.716,117.414,203.302,117.414 C203.302,117.414,239.495,115.938,239.495,115.938 C239.495,115.938,237.47,123.036,237.47,123.036 C237.47,123.036,187.899,121.955,187.899,121.955 C187.899,121.955,188.487,112.657,188.487,112.657 C188.487,112.657,187.622,112.657,187.622,112.657 C185.605,114.675,183.683,116.459,181.855,118.009 C180.027,119.559,178.046,120.784,175.911,121.685 C173.777,122.586,171.196,123.036,168.168,123.036 z M172.326,116.333 C175.281,116.333,177.975,115.721,180.407,114.495 C182.838,113.27,184.932,111.522,186.687,109.252 C188.443,106.981,189.698,104.332,190.453,101.305 C190.453,101.305,192.636,92.5478,192.636,92.5478 C192.636,92.5478,185.636,92.8721,185.636,92.8721 C181.491,93.0163,178.113,93.629,175.501,94.7101 C172.889,95.7913,170.84,97.2869,169.355,99.1969 C167.87,101.107,166.777,103.467,166.076,106.278 C165.519,108.513,165.38,110.369,165.661,111.846 C165.941,113.324,166.635,114.441,167.744,115.198 C168.853,115.955,170.38,116.333,172.326,116.333 z"/>
        </g>
        <g id="Text">
          <path style="fill:#000000;fill-opacity:1;fill-rule:nonzero;opacity:1;stroke:none;" d="M237.47,123.036 C232.713,123.036,228.73,122.027,225.522,120.009 C222.313,117.991,220.189,114.802,219.15,110.441 C218.111,106.08,218.472,100.368,220.233,93.3046 C222.156,85.5924,224.733,79.5199,227.965,75.0872 C231.196,70.6544,234.861,67.5191,238.959,65.6811 C243.057,63.8432,247.377,62.9242,251.917,62.9242 C254.945,62.9242,257.801,63.3206,260.486,64.1134 C263.172,64.9063,265.249,66.1136,266.719,67.7353 C268.189,69.357,268.609,71.4292,267.98,73.952 C267.567,75.6097,266.874,76.9431,265.901,77.9522 C264.929,78.9613,263.686,79.6821,262.173,80.1145 C260.66,80.547,258.822,80.7632,256.659,80.7632 C257.234,78.4567,257.485,76.3665,257.412,74.4925 C257.339,72.6185,256.793,71.1229,255.774,70.0057 C254.755,68.8885,253.02,68.3299,250.57,68.3299 C247.831,68.3299,245.254,69.0507,242.841,70.4923 C240.427,71.9338,238.212,74.4565,236.197,78.0603 C234.181,81.6642,232.365,86.7096,230.747,93.1965 C229.471,98.3139,228.97,102.566,229.242,105.954 C229.515,109.342,230.634,111.864,232.599,113.522 C234.564,115.18,237.493,116.009,241.385,116.009 C243.619,116.009,245.754,115.684,247.79,115.036 C249.826,114.387,251.69,113.486,253.383,112.333 C255.076,111.18,256.499,109.882,257.651,108.441 C258.12,108.873,258.431,109.432,258.585,110.117 C258.738,110.801,258.689,111.648,258.438,112.657 C258.024,114.315,256.935,115.937,255.171,117.522 C253.406,119.108,251.042,120.424,248.078,121.469 C245.115,122.514,241.579,123.036,237.47,123.036 z"/>
        </g>
        <g id="Text">
          <path style="fill:#000000;fill-opacity:1;fill-rule:nonzero;opacity:1;stroke:none;" d="M291.096,123.036 C283.311,123.036,277.805,120.55,274.576,115.576 C271.347,110.603,271,103.035,273.534,92.8721 C276.049,82.7814,280.067,75.2673,285.587,70.3301 C291.106,65.3928,298.047,62.9242,306.408,62.9242 C314.192,62.9242,319.703,65.3928,322.941,70.3301 C326.178,75.2673,326.539,82.7814,324.023,92.8721 C321.49,103.035,317.458,110.603,311.93,115.576 C306.401,120.55,299.457,123.036,291.096,123.036 z M292.714,117.414 C296.317,117.414,299.43,116.495,302.05,114.657 C304.671,112.819,306.908,110.062,308.761,106.387 C310.615,102.711,312.206,98.2058,313.536,92.8721 C315.549,84.7995,315.941,78.7451,314.713,74.7088 C313.485,70.6724,310.168,68.6543,304.763,68.6543 C299.357,68.6543,295.052,70.6725,291.847,74.7088 C288.642,78.7451,286.033,84.7995,284.021,92.8721 C282.008,100.945,281.602,107.053,282.803,111.198 C284.004,115.342,287.308,117.414,292.714,117.414 z"/>
        </g>
        <g id="Text">
          <path style="fill:#000000;fill-opacity:1;fill-rule:nonzero;opacity:1;stroke:none;" d="M326.286,121.955 C326.286,121.955,327.419,117.414,327.419,117.414 C327.419,117.414,327.743,117.414,327.743,117.414 C329.401,117.414,330.941,117.234,332.364,116.874 C333.788,116.513,335.035,115.775,336.106,114.657 C337.178,113.54,337.992,111.864,338.549,109.63 C338.549,109.63,346.96,75.898,346.96,75.898 C347.499,73.7357,347.484,72.132,346.916,71.0869 C346.347,70.0418,345.437,69.357,344.185,69.0327 C342.932,68.7084,341.513,68.5462,339.927,68.5462 C339.927,68.5462,304.007,68.5462,304.007,68.5462 C304.007,68.5462,305.101,62.9446,305.101,62.9446 C305.101,62.9446,357.385,64.0053,357.385,64.0053 C357.385,64.0053,356.77,74.7088,356.77,74.7088 C356.77,74.7088,357.311,74.7088,357.311,74.7088 C358.787,72.5464,360.29,70.5643,361.821,68.7624 C363.351,66.9605,365.148,65.537,367.21,64.4919 C369.273,63.4467,371.889,62.9242,375.061,62.9242 C379.025,62.9242,381.792,63.6089,383.36,64.9784 C384.929,66.3478,385.398,68.2939,384.77,70.8166 C384.212,73.051,382.979,74.8889,381.07,76.3305 C379.161,77.772,376.405,78.4928,372.801,78.4928 C373.304,76.4746,373.528,74.8529,373.473,73.6276 C373.418,72.4023,373.048,71.5013,372.363,70.9247 C371.678,70.3481,370.615,70.0598,369.173,70.0598 C367.155,70.0598,365.264,70.8526,363.499,72.4383 C361.734,74.024,360.15,76.0422,358.746,78.4928 C357.342,80.9434,356.132,83.4841,355.116,86.1149 C354.099,88.7457,353.331,91.1062,352.809,93.1965 C352.809,93.1965,348.577,110.171,348.577,110.171 C348.056,112.261,348.08,113.829,348.648,114.874 C349.216,115.919,350.127,116.603,351.379,116.928 C352.632,117.252,354.051,117.414,355.637,117.414 C355.637,117.414,358.664,117.414,358.664,117.414 C358.664,117.414,357.532,121.955,357.532,121.955 C357.532,121.955,326.286,121.955,326.286,121.955 z"/>
        </g>
        <g id="Text">
          <path style="fill:#000000;fill-opacity:1;fill-rule:nonzero;opacity:1;stroke:none;" d="M401.373,123.036 C396.616,123.036,392.858,121.991,390.1,119.901 C387.342,117.811,385.668,114.549,385.08,110.117 C384.491,105.684,385.059,100.008,386.785,93.0884 C388.528,86.0969,390.799,80.3848,393.598,75.9521 C396.397,71.5193,399.701,68.2398,403.511,66.1136 C407.32,63.9873,411.604,62.9242,416.361,62.9242 C420.541,62.9242,423.727,63.8071,425.917,65.573 C428.108,67.3389,429.646,69.6273,430.53,72.4383 C430.53,72.4383,431.179,72.4383,431.179,72.4383 C431.412,70.6364,431.749,68.6363,432.189,66.4379 C432.629,64.2396,433.064,62.2755,433.496,60.5456 C433.496,60.5456,435.706,51.6802,435.706,51.6802 C436.245,49.5179,436.231,47.9142,435.662,46.869 C435.094,45.8239,434.184,45.1392,432.931,44.8148 C431.678,44.4905,430.259,44.3283,428.674,44.3283 C428.674,44.3283,427.809,44.3283,427.809,44.3283 C427.809,44.3283,428.941,39.7875,428.941,39.7875 C428.941,39.7875,448.834,39.7875,448.834,39.7875 C448.834,39.7875,431.313,110.062,431.313,110.062 C430.791,112.153,430.81,113.738,431.37,114.82 C431.929,115.901,432.835,116.603,434.088,116.928 C435.34,117.252,436.759,117.414,438.345,117.414 C438.345,117.414,465.372,117.414,465.372,117.414 C465.372,117.414,463.083,123.013,463.083,123.013 C463.083,123.013,419.806,121.955,419.806,121.955 C419.806,121.955,421.043,112.225,421.043,112.225 C421.043,112.225,420.611,112.225,420.611,112.225 C418.198,115.54,415.452,118.171,412.372,120.117 C409.292,122.063,405.626,123.036,401.373,123.036 z M404.936,116.117 C410.558,116.117,414.886,114.225,417.92,110.441 C420.954,106.657,423.441,100.873,425.382,93.0884 C427.251,85.5924,427.639,79.8442,426.546,75.844 C425.453,71.8437,422.06,69.8436,416.366,69.8436 C413.194,69.8436,410.411,70.7445,408.015,72.5464 C405.62,74.3484,403.541,76.9791,401.777,80.4389 C400.014,83.8986,398.503,88.1511,397.245,93.1965 C395.34,100.837,394.938,106.567,396.04,110.387 C397.142,114.207,400.107,116.117,404.936,116.117 z"/>
        </g>
        <g id="Text">
          <path style="fill:#000000;fill-opacity:1;fill-rule:nonzero;opacity:1;stroke:none;" d="M461.918,123.036 C458.747,123.036,456.039,122.406,453.794,121.144 C451.55,119.883,450.026,117.973,449.223,115.414 C448.419,112.855,448.503,109.63,449.473,105.738 C450.911,99.9717,454.007,95.7192,458.762,92.9803 C463.518,90.2413,470.076,88.7277,478.436,88.4394 C478.436,88.4394,487.491,88.1151,487.491,88.1151 C487.491,88.1151,489.108,81.6281,489.108,81.6281 C489.755,79.0334,490.109,76.7449,490.171,74.7628 C490.233,72.7807,489.687,71.213,488.533,70.0598 C487.379,68.9066,485.324,68.3299,482.369,68.3299 C479.63,68.3299,477.414,68.8345,475.721,69.8436 C474.028,70.8526,472.727,72.2401,471.818,74.006 C470.909,75.7719,470.167,77.8081,469.592,80.1145 C466.565,80.1145,464.407,79.5919,463.118,78.5469 C461.829,77.5017,461.49,75.7539,462.101,73.3033 C462.73,70.7806,464.116,68.7624,466.259,67.2488 C468.402,65.7352,471.037,64.636,474.163,63.9513 C477.289,63.2665,480.618,62.9242,484.149,62.9242 C490.78,62.9242,495.385,64.3296,497.964,67.1407 C500.542,69.9517,500.978,74.7808,499.271,81.6281 C499.271,81.6281,492.289,109.63,492.289,109.63 C491.786,111.648,491.612,113.216,491.765,114.333 C491.919,115.45,492.442,116.243,493.335,116.712 C494.227,117.18,495.466,117.414,497.052,117.414 C497.052,117.414,537.376,116.414,537.376,116.414 C537.376,116.414,536.244,121.955,536.244,121.955 C536.244,121.955,481.648,121.955,481.648,121.955 C481.648,121.955,482.237,112.657,482.237,112.657 C482.237,112.657,481.372,112.657,481.372,112.657 C479.355,114.675,477.432,116.459,475.605,118.009 C473.777,119.559,471.795,120.784,469.661,121.685 C467.526,122.586,464.945,123.036,461.918,123.036 z M466.076,116.333 C469.031,116.333,471.724,115.721,474.156,114.495 C476.588,113.27,478.682,111.522,480.437,109.252 C482.192,106.981,483.447,104.332,484.202,101.305 C484.202,101.305,486.386,92.5478,486.386,92.5478 C486.386,92.5478,479.385,92.8721,479.385,92.8721 C475.241,93.0163,471.863,93.6289,469.251,94.7101 C466.639,95.7913,464.59,97.2868,463.105,99.1969 C461.619,101.107,460.526,103.467,459.825,106.278 C459.268,108.513,459.13,110.369,459.41,111.846 C459.691,113.324,460.385,114.441,461.494,115.198 C462.602,115.955,464.13,116.333,466.076,116.333 z"/>
        </g>
      </g>
      <g id="Text">
        <path style="fill:#ffffff;fill-opacity:1;fill-rule:nonzero;opacity:1;stroke:none;" d="M168.168,123.036 C164.997,123.036,162.289,122.406,160.045,121.144 C157.801,119.883,156.277,117.973,155.473,115.414 C154.67,112.855,154.753,109.63,155.723,105.738 C157.161,99.9717,160.258,95.7192,165.013,92.9803 C169.768,90.2413,176.326,88.7277,184.687,88.4394 C184.687,88.4394,193.741,88.1151,193.741,88.1151 C193.741,88.1151,195.359,81.6281,195.359,81.6281 C196.006,79.0334,196.36,76.7449,196.422,74.7628 C196.483,72.7807,195.937,71.2131,194.783,70.0598 C193.629,68.9066,191.575,68.3299,188.619,68.3299 C185.881,68.3299,183.665,68.8345,181.971,69.8436 C180.278,70.8526,178.977,72.2401,178.069,74.006 C177.16,75.7719,176.418,77.8081,175.843,80.1145 C172.816,80.1145,170.657,79.592,169.368,78.5469 C168.079,77.5017,167.74,75.7539,168.351,73.3033 C168.98,70.7806,170.366,68.7624,172.51,67.2488 C174.653,65.7352,177.287,64.636,180.413,63.9513 C183.539,63.2665,186.868,62.9242,190.4,62.9242 C197.031,62.9242,201.636,64.3297,204.214,67.1407 C206.793,69.9517,207.229,74.7808,205.521,81.6281 C205.521,81.6281,198.54,109.63,198.54,109.63 C198.037,111.648,197.862,113.216,198.016,114.333 C198.17,115.45,198.693,116.243,199.585,116.712 C200.477,117.18,201.716,117.414,203.302,117.414 C203.302,117.414,239.495,115.938,239.495,115.938 C239.495,115.938,237.47,123.036,237.47,123.036 C237.47,123.036,187.899,121.955,187.899,121.955 C187.899,121.955,188.487,112.657,188.487,112.657 C188.487,112.657,187.622,112.657,187.622,112.657 C185.605,114.675,183.683,116.459,181.855,118.009 C180.027,119.559,178.046,120.784,175.911,121.685 C173.777,122.586,171.196,123.036,168.168,123.036 z M172.326,116.333 C175.281,116.333,177.975,115.721,180.407,114.495 C182.838,113.27,184.932,111.522,186.687,109.252 C188.443,106.981,189.698,104.332,190.453,101.305 C190.453,101.305,192.636,92.5478,192.636,92.5478 C192.636,92.5478,185.636,92.8721,185.636,92.8721 C181.491,93.0163,178.113,93.629,175.501,94.7101 C172.889,95.7913,170.84,97.2869,169.355,99.1969 C167.87,101.107,166.777,103.467,166.076,106.278 C165.519,108.513,165.38,110.369,165.661,111.846 C165.941,113.324,166.635,114.441,167.744,115.198 C168.853,115.955,170.38,116.333,172.326,116.333 z M237.47,123.036 C232.713,123.036,228.73,122.027,225.522,120.009 C222.313,117.991,220.189,114.802,219.15,110.441 C218.111,106.08,218.472,100.368,220.233,93.3046 C222.156,85.5924,224.733,79.5199,227.965,75.0872 C231.196,70.6544,234.861,67.5191,238.959,65.6811 C243.057,63.8432,247.377,62.9242,251.917,62.9242 C254.945,62.9242,257.801,63.3206,260.486,64.1134 C263.172,64.9063,265.249,66.1136,266.719,67.7353 C268.189,69.357,268.609,71.4292,267.98,73.952 C267.567,75.6097,266.874,76.9431,265.901,77.9522 C264.929,78.9613,263.686,79.6821,262.173,80.1145 C260.66,80.547,258.822,80.7632,256.659,80.7632 C257.234,78.4567,257.485,76.3665,257.412,74.4925 C257.339,72.6185,256.793,71.1229,255.774,70.0057 C254.755,68.8885,253.02,68.3299,250.57,68.3299 C247.831,68.3299,245.254,69.0507,242.841,70.4923 C240.427,71.9338,238.212,74.4565,236.197,78.0603 C234.181,81.6642,232.365,86.7096,230.747,93.1965 C229.471,98.3139,228.97,102.566,229.242,105.954 C229.515,109.342,230.634,111.864,232.599,113.522 C234.564,115.18,237.493,116.009,241.385,116.009 C243.619,116.009,245.754,115.684,247.79,115.036 C249.826,114.387,251.69,113.486,253.383,112.333 C255.076,111.18,256.499,109.882,257.651,108.441 C258.12,108.873,258.431,109.432,258.585,110.117 C258.738,110.801,258.689,111.648,258.438,112.657 C258.024,114.315,256.935,115.937,255.171,117.522 C253.406,119.108,251.042,120.424,248.078,121.469 C245.115,122.514,241.579,123.036,237.47,123.036 z M291.096,123.036 C283.311,123.036,277.805,120.55,274.576,115.576 C271.347,110.603,271,103.035,273.534,92.8721 C276.049,82.7814,280.067,75.2673,285.587,70.3301 C291.106,65.3928,298.047,62.9242,306.408,62.9242 C314.192,62.9242,319.703,65.3928,322.941,70.3301 C326.178,75.2673,326.539,82.7814,324.023,92.8721 C321.49,103.035,317.458,110.603,311.93,115.576 C306.401,120.55,299.457,123.036,291.096,123.036 z M292.714,117.414 C296.317,117.414,299.43,116.495,302.05,114.657 C304.671,112.819,306.908,110.062,308.761,106.387 C310.615,102.711,312.206,98.2058,313.536,92.8721 C315.549,84.7995,315.941,78.7451,314.713,74.7088 C313.485,70.6724,310.168,68.6543,304.763,68.6543 C299.357,68.6543,295.052,70.6725,291.847,74.7088 C288.642,78.7451,286.033,84.7995,284.021,92.8721 C282.008,100.945,281.602,107.053,282.803,111.198 C284.004,115.342,287.308,117.414,292.714,117.414 z M326.286,121.955 C326.286,121.955,327.419,117.414,327.419,117.414 C327.419,117.414,327.743,117.414,327.743,117.414 C329.401,117.414,330.941,117.234,332.364,116.874 C333.788,116.513,335.035,115.775,336.106,114.657 C337.178,113.54,337.992,111.864,338.549,109.63 C338.549,109.63,346.96,75.898,346.96,75.898 C347.499,73.7357,347.484,72.132,346.916,71.0869 C346.347,70.0418,345.437,69.357,344.185,69.0327 C342.932,68.7084,341.513,68.5462,339.927,68.5462 C339.927,68.5462,304.007,68.5462,304.007,68.5462 C304.007,68.5462,305.101,62.9446,305.101,62.9446 C305.101,62.9446,357.385,64.0053,357.385,64.0053 C357.385,64.0053,356.77,74.7088,356.77,74.7088 C356.77,74.7088,357.311,74.7088,357.311,74.7088 C358.787,72.5464,360.29,70.5643,361.821,68.7624 C363.351,66.9605,365.148,65.537,367.21,64.4919 C369.273,63.4467,371.889,62.9242,375.061,62.9242 C379.025,62.9242,381.792,63.6089,383.36,64.9784 C384.929,66.3478,385.398,68.2939,384.77,70.8166 C384.212,73.051,382.979,74.8889,381.07,76.3305 C379.161,77.772,376.405,78.4928,372.801,78.4928 C373.304,76.4746,373.528,74.8529,373.473,73.6276 C373.418,72.4023,373.048,71.5013,372.363,70.9247 C371.678,70.3481,370.615,70.0598,369.173,70.0598 C367.155,70.0598,365.264,70.8526,363.499,72.4383 C361.734,74.024,360.15,76.0422,358.746,78.4928 C357.342,80.9434,356.132,83.4841,355.116,86.1149 C354.099,88.7457,353.331,91.1062,352.809,93.1965 C352.809,93.1965,348.577,110.171,348.577,110.171 C348.056,112.261,348.08,113.829,348.648,114.874 C349.216,115.919,350.127,116.603,351.379,116.928 C352.632,117.252,354.051,117.414,355.637,117.414 C355.637,117.414,358.664,117.414,358.664,117.414 C358.664,117.414,357.532,121.955,357.532,121.955 C357.532,121.955,326.286,121.955,326.286,121.955 z M401.373,123.036 C396.616,123.036,392.858,121.991,390.1,119.901 C387.342,117.811,385.668,114.549,385.08,110.117 C384.491,105.684,385.059,100.008,386.785,93.0884 C388.528,86.0969,390.799,80.3848,393.598,75.9521 C396.397,71.5193,399.701,68.2398,403.511,66.1136 C407.32,63.9873,411.604,62.9242,416.361,62.9242 C420.541,62.9242,423.727,63.8071,425.917,65.573 C428.108,67.3389,429.646,69.6273,430.53,72.4383 C430.53,72.4383,431.179,72.4383,431.179,72.4383 C431.412,70.6364,431.749,68.6363,432.189,66.4379 C432.629,64.2396,433.064,62.2755,433.496,60.5456 C433.496,60.5456,435.706,51.6802,435.706,51.6802 C436.245,49.5179,436.231,47.9142,435.662,46.869 C435.094,45.8239,434.184,45.1392,432.931,44.8148 C431.678,44.4905,430.259,44.3283,428.674,44.3283 C428.674,44.3283,427.809,44.3283,427.809,44.3283 C427.809,44.3283,428.941,39.7875,428.941,39.7875 C428.941,39.7875,448.834,39.7875,448.834,39.7875 C448.834,39.7875,431.313,110.062,431.313,110.062 C430.791,112.153,430.81,113.738,431.37,114.82 C431.929,115.901,432.835,116.603,434.088,116.928 C435.34,117.252,436.759,117.414,438.345,117.414 C438.345,117.414,465.372,117.414,465.372,117.414 C465.372,117.414,463.083,123.013,463.083,123.013 C463.083,123.013,419.806,121.955,419.806,121.955 C419.806,121.955,421.043,112.225,421.043,112.225 C421.043,112.225,420.611,112.225,420.611,112.225 C418.198,115.54,415.452,118.171,412.372,120.117 C409.292,122.063,405.626,123.036,401.373,123.036 z M404.936,116.117 C410.558,116.117,414.886,114.225,417.92,110.441 C420.954,106.657,423.441,100.873,425.382,93.0884 C427.251,85.5924,427.639,79.8442,426.546,75.844 C425.453,71.8437,422.06,69.8436,416.366,69.8436 C413.194,69.8436,410.411,70.7445,408.015,72.5464 C405.62,74.3484,403.541,76.9791,401.777,80.4389 C400.014,83.8986,398.503,88.1511,397.245,93.1965 C395.34,100.837,394.938,106.567,396.04,110.387 C397.142,114.207,400.107,116.117,404.936,116.117 z M461.918,123.036 C458.747,123.036,456.039,122.406,453.794,121.144 C451.55,119.883,450.026,117.973,449.223,115.414 C448.419,112.855,448.503,109.63,449.473,105.738 C450.911,99.9717,454.007,95.7192,458.762,92.9803 C463.518,90.2413,470.076,88.7277,478.436,88.4394 C478.436,88.4394,487.491,88.1151,487.491,88.1151 C487.491,88.1151,489.108,81.6281,489.108,81.6281 C489.755,79.0334,490.109,76.7449,490.171,74.7628 C490.233,72.7807,489.687,71.213,488.533,70.0598 C487.379,68.9066,485.324,68.3299,482.369,68.3299 C479.63,68.3299,477.414,68.8345,475.721,69.8436 C474.028,70.8526,472.727,72.2401,471.818,74.006 C470.909,75.7719,470.167,77.8081,469.592,80.1145 C466.565,80.1145,464.407,79.5919,463.118,78.5469 C461.829,77.5017,461.49,75.7539,462.101,73.3033 C462.73,70.7806,464.116,68.7624,466.259,67.2488 C468.402,65.7352,471.037,64.636,474.163,63.9513 C477.289,63.2665,480.618,62.9242,484.149,62.9242 C490.78,62.9242,495.385,64.3296,497.964,67.1407 C500.542,69.9517,500.978,74.7808,499.271,81.6281 C499.271,81.6281,492.289,109.63,492.289,109.63 C491.786,111.648,491.612,113.216,491.765,114.333 C491.919,115.45,492.442,116.243,493.335,116.712 C494.227,117.18,495.466,117.414,497.052,117.414 C497.052,117.414,537.376,116.414,537.376,116.414 C537.376,116.414,536.244,121.955,536.244,121.955 C536.244,121.955,481.648,121.955,481.648,121.955 C481.648,121.955,482.237,112.657,482.237,112.657 C482.237,112.657,481.372,112.657,481.372,112.657 C479.355,114.675,477.432,116.459,475.605,118.009 C473.777,119.559,471.795,120.784,469.661,121.685 C467.526,122.586,464.945,123.036,461.918,123.036 z M466.076,116.333 C469.031,116.333,471.724,115.721,474.156,114.495 C476.588,113.27,478.682,111.522,480.437,109.252 C482.192,106.981,483.447,104.332,484.202,101.305 C484.202,101.305,486.386,92.5478,486.386,92.5478 C486.386,92.5478,479.385,92.8721,479.385,92.8721 C475.241,93.0163,471.863,93.6289,469.251,94.7101 C466.639,95.7913,464.59,97.2868,463.105,99.1969 C461.619,101.107,460.526,103.467,459.825,106.278 C459.268,108.513,459.13,110.369,459.41,111.846 C459.691,113.324,460.385,114.441,461.494,115.198 C462.602,115.955,464.13,116.333,466.076,116.333 z"/>
        <path style="fill:none;opacity:1;stroke:#ffffff;stroke-linecap:butt;stroke-linejoin:miter;stroke-miterlimit:10;stroke-opacity:1;stroke-width:1;" d="M168.168,123.036 C164.997,123.036,162.289,122.406,160.045,121.144 C157.801,119.883,156.277,117.973,155.473,115.414 C154.67,112.855,154.753,109.63,155.723,105.738 C157.161,99.9717,160.258,95.7192,165.013,92.9803 C169.768,90.2413,176.326,88.7277,184.687,88.4394 C184.687,88.4394,193.741,88.1151,193.741,88.1151 C193.741,88.1151,195.359,81.6281,195.359,81.6281 C196.006,79.0334,196.36,76.7449,196.422,74.7628 C196.483,72.7807,195.937,71.2131,194.783,70.0598 C193.629,68.9066,191.575,68.3299,188.619,68.3299 C185.881,68.3299,183.665,68.8345,181.971,69.8436 C180.278,70.8526,178.977,72.2401,178.069,74.006 C177.16,75.7719,176.418,77.8081,175.843,80.1145 C172.816,80.1145,170.657,79.592,169.368,78.5469 C168.079,77.5017,167.74,75.7539,168.351,73.3033 C168.98,70.7806,170.366,68.7624,172.51,67.2488 C174.653,65.7352,177.287,64.636,180.413,63.9513 C183.539,63.2665,186.868,62.9242,190.4,62.9242 C197.031,62.9242,201.636,64.3297,204.214,67.1407 C206.793,69.9517,207.229,74.7808,205.521,81.6281 C205.521,81.6281,198.54,109.63,198.54,109.63 C198.037,111.648,197.862,113.216,198.016,114.333 C198.17,115.45,198.693,116.243,199.585,116.712 C200.477,117.18,201.716,117.414,203.302,117.414 C203.302,117.414,239.495,115.938,239.495,115.938 C239.495,115.938,237.47,123.036,237.47,123.036 C237.47,123.036,187.899,121.955,187.899,121.955 C187.899,121.955,188.487,112.657,188.487,112.657 C188.487,112.657,187.622,112.657,187.622,112.657 C185.605,114.675,183.683,116.459,181.855,118.009 C180.027,119.559,178.046,120.784,175.911,121.685 C173.777,122.586,171.196,123.036,168.168,123.036 z M172.326,116.333 C175.281,116.333,177.975,115.721,180.407,114.495 C182.838,113.27,184.932,111.522,186.687,109.252 C188.443,106.981,189.698,104.332,190.453,101.305 C190.453,101.305,192.636,92.5478,192.636,92.5478 C192.636,92.5478,185.636,92.8721,185.636,92.8721 C181.491,93.0163,178.113,93.629,175.501,94.7101 C172.889,95.7913,170.84,97.2869,169.355,99.1969 C167.87,101.107,166.777,103.467,166.076,106.278 C165.519,108.513,165.38,110.369,165.661,111.846 C165.941,113.324,166.635,114.441,167.744,115.198 C168.853,115.955,170.38,116.333,172.326,116.333 z M237.47,123.036 C232.713,123.036,228.73,122.027,225.522,120.009 C222.313,117.991,220.189,114.802,219.15,110.441 C218.111,106.08,218.472,100.368,220.233,93.3046 C222.156,85.5924,224.733,79.5199,227.965,75.0872 C231.196,70.6544,234.861,67.5191,238.959,65.6811 C243.057,63.8432,247.377,62.9242,251.917,62.9242 C254.945,62.9242,257.801,63.3206,260.486,64.1134 C263.172,64.9063,265.249,66.1136,266.719,67.7353 C268.189,69.357,268.609,71.4292,267.98,73.952 C267.567,75.6097,266.874,76.9431,265.901,77.9522 C264.929,78.9613,263.686,79.6821,262.173,80.1145 C260.66,80.547,258.822,80.7632,256.659,80.7632 C257.234,78.4567,257.485,76.3665,257.412,74.4925 C257.339,72.6185,256.793,71.1229,255.774,70.0057 C254.755,68.8885,253.02,68.3299,250.57,68.3299 C247.831,68.3299,245.254,69.0507,242.841,70.4923 C240.427,71.9338,238.212,74.4565,236.197,78.0603 C234.181,81.6642,232.365,86.7096,230.747,93.1965 C229.471,98.3139,228.97,102.566,229.242,105.954 C229.515,109.342,230.634,111.864,232.599,113.522 C234.564,115.18,237.493,116.009,241.385,116.009 C243.619,116.009,245.754,115.684,247.79,115.036 C249.826,114.387,251.69,113.486,253.383,112.333 C255.076,111.18,256.499,109.882,257.651,108.441 C258.12,108.873,258.431,109.432,258.585,110.117 C258.738,110.801,258.689,111.648,258.438,112.657 C258.024,114.315,256.935,115.937,255.171,117.522 C253.406,119.108,251.042,120.424,248.078,121.469 C245.115,122.514,241.579,123.036,237.47,123.036 z M291.096,123.036 C283.311,123.036,277.805,120.55,274.576,115.576 C271.347,110.603,271,103.035,273.534,92.8721 C276.049,82.7814,280.067,75.2673,285.587,70.3301 C291.106,65.3928,298.047,62.9242,306.408,62.9242 C314.192,62.9242,319.703,65.3928,322.941,70.3301 C326.178,75.2673,326.539,82.7814,324.023,92.8721 C321.49,103.035,317.458,110.603,311.93,115.576 C306.401,120.55,299.457,123.036,291.096,123.036 z M292.714,117.414 C296.317,117.414,299.43,116.495,302.05,114.657 C304.671,112.819,306.908,110.062,308.761,106.387 C310.615,102.711,312.206,98.2058,313.536,92.8721 C315.549,84.7995,315.941,78.7451,314.713,74.7088 C313.485,70.6724,310.168,68.6543,304.763,68.6543 C299.357,68.6543,295.052,70.6725,291.847,74.7088 C288.642,78.7451,286.033,84.7995,284.021,92.8721 C282.008,100.945,281.602,107.053,282.803,111.198 C284.004,115.342,287.308,117.414,292.714,117.414 z M326.286,121.955 C326.286,121.955,327.419,117.414,327.419,117.414 C327.419,117.414,327.743,117.414,327.743,117.414 C329.401,117.414,330.941,117.234,332.364,116.874 C333.788,116.513,335.035,115.775,336.106,114.657 C337.178,113.54,337.992,111.864,338.549,109.63 C338.549,109.63,346.96,75.898,346.96,75.898 C347.499,73.7357,347.484,72.132,346.916,71.0869 C346.347,70.0418,345.437,69.357,344.185,69.0327 C342.932,68.7084,341.513,68.5462,339.927,68.5462 C339.927,68.5462,304.007,68.5462,304.007,68.5462 C304.007,68.5462,305.101,62.9446,305.101,62.9446 C305.101,62.9446,357.385,64.0053,357.385,64.0053 C357.385,64.0053,356.77,74.7088,356.77,74.7088 C356.77,74.7088,357.311,74.7088,357.311,74.7088 C358.787,72.5464,360.29,70.5643,361.821,68.7624 C363.351,66.9605,365.148,65.537,367.21,64.4919 C369.273,63.4467,371.889,62.9242,375.061,62.9242 C379.025,62.9242,381.792,63.6089,383.36,64.9784 C384.929,66.3478,385.398,68.2939,384.77,70.8166 C384.212,73.051,382.979,74.8889,381.07,76.3305 C379.161,77.772,376.405,78.4928,372.801,78.4928 C373.304,76.4746,373.528,74.8529,373.473,73.6276 C373.418,72.4023,373.048,71.5013,372.363,70.9247 C371.678,70.3481,370.615,70.0598,369.173,70.0598 C367.155,70.0598,365.264,70.8526,363.499,72.4383 C361.734,74.024,360.15,76.0422,358.746,78.4928 C357.342,80.9434,356.132,83.4841,355.116,86.1149 C354.099,88.7457,353.331,91.1062,352.809,93.1965 C352.809,93.1965,348.577,110.171,348.577,110.171 C348.056,112.261,348.08,113.829,348.648,114.874 C349.216,115.919,350.127,116.603,351.379,116.928 C352.632,117.252,354.051,117.414,355.637,117.414 C355.637,117.414,358.664,117.414,358.664,117.414 C358.664,117.414,357.532,121.955,357.532,121.955 C357.532,121.955,326.286,121.955,326.286,121.955 z M401.373,123.036 C396.616,123.036,392.858,121.991,390.1,119.901 C387.342,117.811,385.668,114.549,385.08,110.117 C384.491,105.684,385.059,100.008,386.785,93.0884 C388.528,86.0969,390.799,80.3848,393.598,75.9521 C396.397,71.5193,399.701,68.2398,403.511,66.1136 C407.32,63.9873,411.604,62.9242,416.361,62.9242 C420.541,62.9242,423.727,63.8071,425.917,65.573 C428.108,67.3389,429.646,69.6273,430.53,72.4383 C430.53,72.4383,431.179,72.4383,431.179,72.4383 C431.412,70.6364,431.749,68.6363,432.189,66.4379 C432.629,64.2396,433.064,62.2755,433.496,60.5456 C433.496,60.5456,435.706,51.6802,435.706,51.6802 C436.245,49.5179,436.231,47.9142,435.662,46.869 C435.094,45.8239,434.184,45.1392,432.931,44.8148 C431.678,44.4905,430.259,44.3283,428.674,44.3283 C428.674,44.3283,427.809,44.3283,427.809,44.3283 C427.809,44.3283,428.941,39.7875,428.941,39.7875 C428.941,39.7875,448.834,39.7875,448.834,39.7875 C448.834,39.7875,431.313,110.062,431.313,110.062 C430.791,112.153,430.81,113.738,431.37,114.82 C431.929,115.901,432.835,116.603,434.088,116.928 C435.34,117.252,436.759,117.414,438.345,117.414 C438.345,117.414,465.372,117.414,465.372,117.414 C465.372,117.414,463.083,123.013,463.083,123.013 C463.083,123.013,419.806,121.955,419.806,121.955 C419.806,121.955,421.043,112.225,421.043,112.225 C421.043,112.225,420.611,112.225,420.611,112.225 C418.198,115.54,415.452,118.171,412.372,120.117 C409.292,122.063,405.626,123.036,401.373,123.036 z M404.936,116.117 C410.558,116.117,414.886,114.225,417.92,110.441 C420.954,106.657,423.441,100.873,425.382,93.0884 C427.251,85.5924,427.639,79.8442,426.546,75.844 C425.453,71.8437,422.06,69.8436,416.366,69.8436 C413.194,69.8436,410.411,70.7445,408.015,72.5464 C405.62,74.3484,403.541,76.9791,401.777,80.4389 C400.014,83.8986,398.503,88.1511,397.245,93.1965 C395.34,100.837,394.938,106.567,396.04,110.387 C397.142,114.207,400.107,116.117,404.936,116.117 z M461.918,123.036 C458.747,123.036,456.039,122.406,453.794,121.144 C451.55,119.883,450.026,117.973,449.223,115.414 C448.419,112.855,448.503,109.63,449.473,105.738 C450.911,99.9717,454.007,95.7192,458.762,92.9803 C463.518,90.2413,470.076,88.7277,478.436,88.4394 C478.436,88.4394,487.491,88.1151,487.491,88.1151 C487.491,88.1151,489.108,81.6281,489.108,81.6281 C489.755,79.0334,490.109,76.7449,490.171,74.7628 C490.233,72.7807,489.687,71.213,488.533,70.0598 C487.379,68.9066,485.324,68.3299,482.369,68.3299 C479.63,68.3299,477.414,68.8345,475.721,69.8436 C474.028,70.8526,472.727,72.2401,471.818,74.006 C470.909,75.7719,470.167,77.8081,469.592,80.1145 C466.565,80.1145,464.407,79.5919,463.118,78.5469 C461.829,77.5017,461.49,75.7539,462.101,73.3033 C462.73,70.7806,464.116,68.7624,466.259,67.2488 C468.402,65.7352,471.037,64.636,474.163,63.9513 C477.289,63.2665,480.618,62.9242,484.149,62.9242 C490.78,62.9242,495.385,64.3296,497.964,67.1407 C500.542,69.9517,500.978,74.7808,499.271,81.6281 C499.271,81.6281,492.289,109.63,492.289,109.63 C491.786,111.648,491.612,113.216,491.765,114.333 C491.919,115.45,492.442,116.243,493.335,116.712 C494.227,117.18,495.466,117.414,497.052,117.414 C497.052,117.414,537.376,116.414,537.376,116.414 C537.376,116.414,536.244,121.955,536.244,121.955 C536.244,121.955,481.648,121.955,481.648,121.955 C481.648,121.955,482.237,112.657,482.237,112.657 C482.237,112.657,481.372,112.657,481.372,112.657 C479.355,114.675,477.432,116.459,475.605,118.009 C473.777,119.559,471.795,120.784,469.661,121.685 C467.526,122.586,464.945,123.036,461.918,123.036 z M466.076,116.333 C469.031,116.333,471.724,115.721,474.156,114.495 C476.588,113.27,478.682,111.522,480.437,109.252 C482.192,106.981,483.447,104.332,484.202,101.305 C484.202,101.305,486.386,92.5478,486.386,92.5478 C486.386,92.5478,479.385,92.8721,479.385,92.8721 C475.241,93.0163,471.863,93.6289,469.251,94.7101 C466.639,95.7913,464.59,97.2868,463.105,99.1969 C461.619,101.107,460.526,103.467,459.825,106.278 C459.268,108.513,459.13,110.369,459.41,111.846 C459.691,113.324,460.385,114.441,461.494,115.198 C462.602,115.955,464.13,116.333,466.076,116.333 z"/>
      </g>
    </g>
  </g>
</svg>
